REM DIRINDEX 1\4,1\2\5,1\2\6,1\3\7,1\3\8
REM DIRNAME folder01,folder02,folder03,folder04,folder05,folder06,folder07,folder08
TITLE ""
FILE "044_Day22_Check3_Sentences.mp3" MP3
  TRACK 01 AUDIO
    TITLE "0:"
    INDEX 01 00:00:00
  TRACK 02 AUDIO
    TITLE "4:cjc124_1422"
    INDEX 01 00:00:25
  TRACK 03 AUDIO
    TITLE "0:"
    INDEX 01 00:01:52
  TRACK 04 AUDIO
    TITLE "7:cjc124_1423"
    INDEX 01 00:02:22
  TRACK 05 AUDIO
    TITLE "0:"
    INDEX 01 00:05:05
  TRACK 06 AUDIO
    TITLE "8:cjc124_1424"
    INDEX 01 00:05:20
  TRACK 07 AUDIO
    TITLE "0:"
    INDEX 01 00:07:47
  TRACK 08 AUDIO
    TITLE "7:cjc124_1425"
    INDEX 01 00:08:05
  TRACK 09 AUDIO
    TITLE "0:"
    INDEX 01 00:11:56
  TRACK 10 AUDIO
    TITLE "8:cjc124_1426"
    INDEX 01 00:12:05
  TRACK 11 AUDIO
    TITLE "0:"
    INDEX 01 00:15:17
  TRACK 12 AUDIO
    TITLE "7:cjc124_1427"
    INDEX 01 00:15:56
  TRACK 13 AUDIO
    TITLE "0:"
    INDEX 01 00:18:41
  TRACK 14 AUDIO
    TITLE "8:cjc124_1428"
    INDEX 01 00:18:54
  TRACK 15 AUDIO
    TITLE "0:"
    INDEX 01 00:21:15
  TRACK 16 AUDIO
    TITLE "7:cjc124_1429"
    INDEX 01 00:21:58
  TRACK 17 AUDIO
    TITLE "0:"
    INDEX 01 00:24:71
  TRACK 18 AUDIO
    TITLE "8:cjc124_1430"
    INDEX 01 00:25:17
  TRACK 19 AUDIO
    TITLE "0:"
    INDEX 01 00:28:21
  TRACK 20 AUDIO
    TITLE "7:cjc124_1431"
    INDEX 01 00:28:60
  TRACK 21 AUDIO
    TITLE "0:"
    INDEX 01 00:32:05
  TRACK 22 AUDIO
    TITLE "8:cjc124_1432"
    INDEX 01 00:32:21
  TRACK 23 AUDIO
    TITLE "0:"
    INDEX 01 00:34:49
  TRACK 24 AUDIO
    TITLE "7:cjc124_1433"
    INDEX 01 00:35:12
  TRACK 25 AUDIO
    TITLE "0:"
    INDEX 01 00:38:08
  TRACK 26 AUDIO
    TITLE "8:cjc124_1434"
    INDEX 01 00:38:26
  TRACK 27 AUDIO
    TITLE "0:"
    INDEX 01 00:40:62
  TRACK 28 AUDIO
    TITLE "7:cjc124_1435"
    INDEX 01 00:41:26
  TRACK 29 AUDIO
    TITLE "0:"
    INDEX 01 00:44:44
  TRACK 30 AUDIO
    TITLE "8:cjc124_1436"
    INDEX 01 00:44:61
  TRACK 31 AUDIO
    TITLE "0:"
    INDEX 01 00:47:50
  TRACK 32 AUDIO
    TITLE "7:cjc124_1437"
    INDEX 01 00:48:10
  TRACK 33 AUDIO
    TITLE "0:"
    INDEX 01 00:50:62
  TRACK 34 AUDIO
    TITLE "8:cjc124_1438"
    INDEX 01 00:51:03
  TRACK 35 AUDIO
    TITLE "0:"
    INDEX 01 00:53:37
  TRACK 36 AUDIO
    TITLE "7:cjc124_1439"
    INDEX 01 00:53:74
  TRACK 37 AUDIO
    TITLE "0:"
    INDEX 01 00:56:20
  TRACK 38 AUDIO
    TITLE "8:cjc124_1440"
    INDEX 01 00:56:43
  TRACK 39 AUDIO
    TITLE "0:"
    INDEX 01 00:58:52
  TRACK 40 AUDIO
    TITLE "7:cjc124_1441"
    INDEX 01 00:59:16
  TRACK 41 AUDIO
    TITLE "0:"
    INDEX 01 01:02:40
  TRACK 42 AUDIO
    TITLE "8:cjc124_1442"
    INDEX 01 01:02:55
  TRACK 43 AUDIO
    TITLE "0:"
    INDEX 01 01:06:14
  TRACK 44 AUDIO
    TITLE "7:cjc124_1443"
    INDEX 01 01:06:53
  TRACK 45 AUDIO
    TITLE "0:"
    INDEX 01 01:08:50
  TRACK 46 AUDIO
    TITLE "8:cjc124_1444"
    INDEX 01 01:08:68
  TRACK 47 AUDIO
    TITLE "0:"
    INDEX 01 01:10:35
  TRACK 48 AUDIO
    TITLE "7:cjc124_1445"
    INDEX 01 01:10:71
  TRACK 49 AUDIO
    TITLE "0:"
    INDEX 01 01:13:47
  TRACK 50 AUDIO
    TITLE "8:cjc124_1446"
    INDEX 01 01:14:04
  TRACK 51 AUDIO
    TITLE "0:"
    INDEX 01 01:16:28
  TRACK 52 AUDIO
    TITLE "7:cjc124_1447"
    INDEX 01 01:17:00
  TRACK 53 AUDIO
    TITLE "0:"
    INDEX 01 01:20:10
  TRACK 54 AUDIO
    TITLE "8:cjc124_1448"
    INDEX 01 01:20:26
  TRACK 55 AUDIO
    TITLE "0:"
    INDEX 01 01:23:20
  TRACK 56 AUDIO
    TITLE "7:cjc124_1449"
    INDEX 01 01:23:58
  TRACK 57 AUDIO
    TITLE "0:"
    INDEX 01 01:26:58
  TRACK 58 AUDIO
    TITLE "8:cjc124_1450"
    INDEX 01 01:26:74
  TRACK 59 AUDIO
    TITLE "0:"
    INDEX 01 01:30:07
  TRACK 60 AUDIO
    TITLE "7:cjc124_1451"
    INDEX 01 01:30:44
  TRACK 61 AUDIO
    TITLE "0:"
    INDEX 01 01:36:41
  TRACK 62 AUDIO
    TITLE "8:cjc124_1452"
    INDEX 01 01:36:54
  TRACK 63 AUDIO
    TITLE "0:"
    INDEX 01 01:41:12
  TRACK 64 AUDIO
    TITLE "7:cjc124_1453"
    INDEX 01 01:41:50
  TRACK 65 AUDIO
    TITLE "0:"
    INDEX 01 01:45:32
  TRACK 66 AUDIO
    TITLE "8:cjc124_1454"
    INDEX 01 01:45:59
  TRACK 67 AUDIO
    TITLE "0:"
    INDEX 01 01:48:65
